John.Carter.2012.BRRip.XviD-RLF
                                            

GENERAL


Complete name: rlf-carter.avi
Format: AVI
Format/Info: Audio Video Interleave
File size: 1.43 GiB
Duration: 2h 11mn
Overall bit rate: 1 556 Kbps 
Language: English
Subs: Polish, English, 
      English for alien parts 

Encoder: Ralf

Video:

Format: MPEG-4 Visual
Format profile: Advanced Simple@L5
Format settings, BVOP: 2
Format settings, QPel: No
Format settings, GMC: No warppoints
Format settings, Matrix: H.263
Muxing mode: Packed bitstream
Codec ID: XVID
Duration: 2h 11mn
Bit rate: 1 163 Kbps
Width: 688 pixels
Height: 288 pixels
Display aspect ratio: 2.35:1
Frame rate: 23.976 fps
Color space: YUV
Chroma subsampling: 4:2:0
Bit depth: 8 bits
Scan type: Progressive
Bits/(Pixel*Frame): 0.245
Stream size: 1.07 GiB (75%)      
Stream size: Xvid 64

Audio:

Format: AC-3
Format/Info: Audio Coding 3
Duration: 2h 11mn
Bit rate mode: Constant
Bit rate: 384 Kbps
Channel(s): 6 channels
Channel positions: Front: L C R, Side: L R, LFE
Sampling rate: 48.0 KHz
Bit depth: 16 bits
Delay relative to video: 22ms
Stream size: 362 MiB (25%)
Alignment: Split accross interleaves
Interleave, duration: 42 ms (1.00 video frame)
Interleave, preload duration: 500 ms

MOVIE INFO

Transplanted to Mars, a Civil War vet discovers a lush planet 
inhabited by 12-foot tall barbarians. Finding himself a prisoner 
of these creatures, he escapes, only to encounter a princess who 
is in desperate need of a savior.
 
http://www.imdb.com/title/tt0401729/                
http://www.filmweb.pl/film/John+Carter-2012-124382
                       
SOURCE

SPARKS 720p.BluRay.x264 (THX)

SCREENS
 
http://image.bayimg.com/gaocpaadl.jpg 
http://image.bayimg.com/haocbaadl.jpg 
http://image.bayimg.com/haocdaadl.jpg 
http://image.bayimg.com/haoceaadl.jpg 
http://image.bayimg.com/haocgaadl.jpg